<svg width="22" height="20" viewBox="0 0 22 20" fill="none" xmlns="http://www.w3.org/2000/svg">
<path d="M6.5 8.99999H3.6C3.03995 8.99999 2.75992 8.99999 2.54601 9.10899C2.35785 9.20486 2.20487 9.35784 2.10899 9.546C2 9.75991 2 10.0399 2 10.6V19M15.5 8.99999H18.4C18.9601 8.99999 19.2401 8.99999 19.454 9.10899C19.6422 9.20486 19.7951 9.35784 19.891 9.546C20 9.75991 20 10.0399 20 10.6V19M15.5 19V4.19999C15.5 3.07989 15.5 2.51983 15.282 2.09201C15.0903 1.71569 14.7843 1.40973 14.408 1.21798C13.9802 0.999992 13.4201 0.999992 12.3 0.999992H9.7C8.57989 0.999992 8.01984 0.999992 7.59202 1.21798C7.21569 1.40973 6.90973 1.71569 6.71799 2.09201C6.5 2.51983 6.5 3.07989 6.5 4.19999V19M21 19H1M10 4.99999H12M10 8.99999H12M10 13H12" stroke="#FF3600" stroke-width="2" stroke-linecap="round" stroke-linejoin="round"/>
</svg>
