<svg width="88" height="36" viewBox="0 0 88 36" fill="none" xmlns="http://www.w3.org/2000/svg">
<g clip-path="url(#clip0_156_7855)">
<path d="M16.5857 0H0V36H16.5857V0Z" fill="#FF3600"/>
<path d="M5.3315 21.1023H10.4118C12.5834 21.1023 13.6692 22.0485 13.6692 23.9408C13.6692 25.8332 12.5834 26.7793 10.4118 26.7793H5.3315C4.6651 26.8074 4.00174 26.6753 3.398 26.3942C2.95282 26.1779 2.59239 25.8216 2.37297 25.3808C2.17775 24.9249 2.07715 24.4347 2.07715 23.9393C2.07715 23.444 2.17775 22.9538 2.37297 22.4979C2.59239 22.0571 2.95282 21.7008 3.398 21.4845C4.00204 21.2046 4.66536 21.0734 5.3315 21.1023ZM4.73382 24.5334H11.0095C11.5922 24.5334 11.8851 24.3349 11.8851 23.9408C11.8851 23.5467 11.5863 23.3482 11.0095 23.3482H4.73382C4.14809 23.3482 3.85522 23.5458 3.85522 23.9408C3.8612 24.3349 4.15407 24.5334 4.7398 24.5334H4.73382Z" fill="#E6E6DD"/>
<path d="M13.4481 20.5838H2.29834V17.4816L10.4029 16.0505V16.0238H2.29834V14.2638H13.4481V17.1408L4.12725 18.8031V18.8297H13.4481V20.5838Z" fill="#E6E6DD"/>
<path d="M13.4481 9.12598V13.7749H2.29834V9.12598H3.9868V11.5319H6.42834V9.20894H8.11679V11.5319H11.7537V9.12598H13.4481Z" fill="#E6E6DD"/>
<path d="M30.9123 33.8846L30.5657 32.2964C29.9115 33.1478 29.0009 33.7705 27.9658 34.0742C27.0257 34.3926 26.0362 34.5431 25.0431 34.5186C23.5708 34.5186 22.3625 34.2421 21.4181 33.689C20.4738 33.1359 19.7556 32.1779 19.2635 30.8149C18.7734 29.4579 18.5283 27.6149 18.5283 25.286V10.9335C18.5283 8.65592 18.8899 6.83172 19.6131 5.46086C20.2242 4.20596 21.2372 3.187 22.494 2.56308C23.7728 1.98241 25.1668 1.69383 26.5731 1.71864C29.2289 1.71864 31.2331 2.39716 32.5858 3.75419C33.9386 5.11123 34.6359 7.29888 34.6777 10.3172L34.621 13.6297H28.2646V9.25938C28.2646 7.60012 27.7018 6.77049 26.5761 6.77049C25.4505 6.77049 24.8877 7.60012 24.8877 9.25938V26.9631C24.8877 28.6125 25.4505 29.4381 26.5761 29.4401C27.7018 29.4421 28.2646 28.6164 28.2646 26.9631V22.7675H25.844V17.9853H34.621V33.8846H30.9123Z" fill="#4F5360"/>
<path d="M52.414 10.9332V25.2858C52.414 31.431 49.7304 34.5036 44.3632 34.5036C38.996 34.5036 36.3134 31.431 36.3154 25.2858V10.9332C36.3154 8.65571 36.677 6.83151 37.4002 5.46065C38.0093 4.2053 39.0215 3.18604 40.2781 2.56287C41.5678 2.00594 42.9595 1.71851 44.3662 1.71851C45.773 1.71851 47.1647 2.00594 48.4544 2.56287C49.7088 3.18803 50.7195 4.20681 51.3293 5.46065C52.0524 6.83349 52.414 8.65768 52.414 10.9332ZM42.6808 9.25916V26.9629C42.6808 28.6122 43.2416 29.4379 44.3632 29.4399C45.4849 29.4419 46.0467 28.6162 46.0487 26.9629V9.25916C46.0487 7.59991 45.4869 6.77028 44.3632 6.77028C43.2396 6.77028 42.6788 7.59991 42.6808 9.25916Z" fill="#4F5360"/>
<path d="M66.4954 33.8844L66.1487 32.2963C65.4954 33.1472 64.5858 33.7698 63.5518 34.074C62.6118 34.3925 61.6222 34.5429 60.6291 34.5185C59.1529 34.5185 57.9435 34.2419 57.0012 33.6888C56.0588 33.1358 55.3406 32.1777 54.8465 30.8148C54.3544 29.4577 54.1084 27.6148 54.1084 25.2859V10.9333C54.1084 8.65576 54.47 6.83156 55.1932 5.4607C55.8022 4.20536 56.8145 3.18609 58.071 2.56292C59.3528 1.98153 60.7499 1.69295 62.1592 1.71848C64.8189 1.71848 66.8241 2.397 68.1749 3.75403C69.5257 5.11107 70.223 7.29872 70.2668 10.317L70.207 13.6296H63.8506V9.25922C63.8506 7.59996 63.2878 6.77033 62.1622 6.77033C61.0366 6.77033 60.4737 7.59996 60.4737 9.25922V26.9629C60.4737 28.6123 61.0366 29.438 62.1622 29.44C63.2878 29.4419 63.8506 28.6163 63.8506 26.9629V22.7674H61.43V17.9851H70.207V33.8844H66.4954Z" fill="#4F5360"/>
<path d="M78.2637 33.8845H71.9014V2.34668H78.2637V14.0385H81.6347V2.34668H88V33.8845H81.6347V18.8208H78.2637V33.8845Z" fill="#4F5360"/>
</g>
<defs>
<clipPath id="clip0_156_7855">
<rect width="88" height="36" fill="white"/>
</clipPath>
</defs>
</svg>
