<svg width="88" height="36" viewBox="0 0 88 36" fill="none" xmlns="http://www.w3.org/2000/svg">
<g clip-path="url(#clip0_174_13062)">
<path d="M16.5857 0H0V36H16.5857V0Z" fill="#FF3600"/>
<path d="M5.3315 21.1021H10.4118C12.5834 21.1021 13.6692 22.0482 13.6692 23.9406C13.6692 25.8329 12.5834 26.7791 10.4118 26.7791H5.3315C4.6651 26.8072 4.00174 26.675 3.398 26.3939C2.95282 26.1776 2.59239 25.8213 2.37297 25.3806C2.17775 24.9246 2.07715 24.4344 2.07715 23.9391C2.07715 23.4438 2.17775 22.9535 2.37297 22.4976C2.59239 22.0569 2.95282 21.7005 3.398 21.4843C4.00204 21.2043 4.66536 21.0732 5.3315 21.1021ZM4.73382 24.5332H11.0095C11.5922 24.5332 11.8851 24.3347 11.8851 23.9406C11.8851 23.5465 11.5863 23.348 11.0095 23.348H4.73382C4.14809 23.348 3.85522 23.5455 3.85522 23.9406C3.8612 24.3347 4.15407 24.5332 4.7398 24.5332H4.73382Z" fill="#E6E6DD"/>
<path d="M13.4481 20.5837H2.29834V17.4814L10.4029 16.0503V16.0237H2.29834V14.2637H13.4481V17.1407L4.12725 18.8029V18.8296H13.4481V20.5837Z" fill="#E6E6DD"/>
<path d="M13.4481 9.12598V13.7749H2.29834V9.12598H3.9868V11.5319H6.42834V9.20894H8.11679V11.5319H11.7537V9.12598H13.4481Z" fill="#E6E6DD"/>
<path d="M30.9123 33.8847L30.5657 32.2965C29.9115 33.1479 29.0009 33.7706 27.9658 34.0743C27.0257 34.3928 26.0362 34.5432 25.0431 34.5188C23.5708 34.5188 22.3625 34.2422 21.4181 33.6891C20.4738 33.136 19.7556 32.178 19.2635 30.8151C18.7734 29.458 18.5283 27.6151 18.5283 25.2862V10.9336C18.5283 8.65604 18.8899 6.83185 19.6131 5.46098C20.2242 4.20608 21.2372 3.18713 22.494 2.5632C23.7728 1.98253 25.1668 1.69396 26.5731 1.71876C29.2289 1.71876 31.2331 2.39728 32.5858 3.75431C33.9386 5.11135 34.6359 7.29901 34.6777 10.3173L34.621 13.6299H28.2646V9.2595C28.2646 7.60024 27.7018 6.77061 26.5761 6.77061C25.4505 6.77061 24.8877 7.60024 24.8877 9.2595V26.9632C24.8877 28.6126 25.4505 29.4383 26.5761 29.4402C27.7018 29.4422 28.2646 28.6165 28.2646 26.9632V22.7676H25.844V17.9854H34.621V33.8847H30.9123Z" fill="white"/>
<path d="M52.414 10.933V25.2856C52.414 31.4308 49.7304 34.5034 44.3632 34.5034C38.996 34.5034 36.3134 31.4308 36.3154 25.2856V10.933C36.3154 8.65546 36.677 6.83127 37.4002 5.4604C38.0093 4.20506 39.0215 3.18579 40.2781 2.56263C41.5678 2.00569 42.9595 1.71826 44.3662 1.71826C45.773 1.71826 47.1647 2.00569 48.4544 2.56263C49.7088 3.18778 50.7195 4.20657 51.3293 5.4604C52.0524 6.83324 52.414 8.65744 52.414 10.933ZM42.6808 9.25892V26.9626C42.6808 28.612 43.2416 29.4377 44.3632 29.4397C45.4849 29.4416 46.0467 28.616 46.0487 26.9626V9.25892C46.0487 7.59966 45.4869 6.77003 44.3632 6.77003C43.2396 6.77003 42.6788 7.59966 42.6808 9.25892Z" fill="white"/>
<path d="M66.4954 33.8843L66.1487 32.2961C65.4954 33.147 64.5858 33.7697 63.5518 34.0739C62.6118 34.3923 61.6222 34.5428 60.6291 34.5184C59.1529 34.5184 57.9435 34.2418 57.0012 33.6887C56.0588 33.1356 55.3406 32.1776 54.8465 30.8146C54.3544 29.4576 54.1084 27.6146 54.1084 25.2858V10.9332C54.1084 8.65564 54.47 6.83144 55.1932 5.46058C55.8022 4.20523 56.8145 3.18597 58.071 2.5628C59.3528 1.9814 60.7499 1.69282 62.1592 1.71835C64.8189 1.71835 66.8241 2.39687 68.1749 3.75391C69.5257 5.11095 70.223 7.2986 70.2668 10.3169L70.207 13.6295H63.8506V9.25909C63.8506 7.59984 63.2878 6.77021 62.1622 6.77021C61.0366 6.77021 60.4737 7.59984 60.4737 9.25909V26.9628C60.4737 28.6122 61.0366 29.4379 62.1622 29.4398C63.2878 29.4418 63.8506 28.6161 63.8506 26.9628V22.7672H61.43V17.985H70.207V33.8843H66.4954Z" fill="white"/>
<path d="M78.2637 33.8845H71.9014V2.34668H78.2637V14.0385H81.6347V2.34668H88V33.8845H81.6347V18.8208H78.2637V33.8845Z" fill="white"/>
</g>
<defs>
<clipPath id="clip0_174_13062">
<rect width="88" height="36" fill="white"/>
</clipPath>
</defs>
</svg>
